<svg version="1.1" viewBox="0.0 0.0 960.0 720.0" fill="none" stroke="none" stroke-linecap="square" stroke-miterlimit="10" xmlns:xlink="http://www.w3.org/1999/xlink" xmlns="http://www.w3.org/2000/svg"><clipPath id="p.0"><path d="m0 0l960.0 0l0 720.0l-960.0 0l0 -720.0z" clip-rule="nonzero"/></clipPath><g clip-path="url(#p.0)"><path fill="#000000" fill-opacity="0.0" d="m0 0l960.0 0l0 720.0l-960.0 0z" fill-rule="evenodd"/><path fill="#000000" fill-opacity="0.0" d="m409.08868 131.72684l2.208191 375.27902l125.09955 0l-9.568848 -379.48886l-56.661255 -21.045425z" fill-rule="evenodd"/><path stroke="#666666" stroke-width="8.0" stroke-linejoin="round" stroke-linecap="butt" d="m409.08868 131.72684l2.208191 375.27902l125.09955 0l-9.568848 -379.48886l-56.661255 -21.045425z" fill-rule="evenodd"/><path fill="#000000" fill-opacity="0.0" d="m697.5443 188.31221l-450.3536 -160.63394l0 161.33557l444.46506 -164.14214z" fill-rule="evenodd"/><path stroke="#666666" stroke-width="8.0" stroke-linejoin="round" stroke-linecap="butt" d="m697.5443 188.31221l-450.3536 -160.63394l0 161.33557l444.46506 -164.14214z" fill-rule="evenodd"/><g filter="url(#shadowFilter-p.1)"><use xlink:href="#p.1" transform="matrix(1.0 0.0 0.0 1.0 0.0 7.0)"/></g><defs><filter id="shadowFilter-p.1" filterUnits="userSpaceOnUse"><feGaussianBlur in="SourceAlpha" stdDeviation="0.0" result="blur"/><feComponentTransfer in="blur" color-interpolation-filters="sRGB"><feFuncR type="linear" slope="0" intercept="0.6431373"/><feFuncG type="linear" slope="0" intercept="0.7607843"/><feFuncB type="linear" slope="0" intercept="0.95686275"/><feFuncA type="linear" slope="0.54" intercept="0"/></feComponentTransfer></filter></defs><g id="p.1"><path fill="#000000" fill-opacity="0.0" d="m-215.42914 137.44763l1356.0945 0l0 164.12598l-1356.0945 0z" fill-rule="evenodd"/></g><path fill="#000000" fill-opacity="0.0" d="m434.01456 93.99418l0 28.262833l69.36139 -2.1352615l0 -26.127571z" fill-rule="evenodd"/><path stroke="#666666" stroke-width="8.0" stroke-linejoin="round" stroke-linecap="butt" d="m434.01456 93.99418l0 28.262833l69.36139 -2.1352615l0 -26.127571z" fill-rule="evenodd"/><g filter="url(#shadowFilter-p.2)"><use xlink:href="#p.2" transform="matrix(1.0 0.0 0.0 1.0 0.0 5.0)"/></g><defs><filter id="shadowFilter-p.2" filterUnits="userSpaceOnUse"><feGaussianBlur in="SourceAlpha" stdDeviation="0.0" result="blur"/><feComponentTransfer in="blur" color-interpolation-filters="sRGB"><feFuncR type="linear" slope="0" intercept="0.6"/><feFuncG type="linear" slope="0" intercept="0.6"/><feFuncB type="linear" slope="0" intercept="0.6"/><feFuncA type="linear" slope="0.5" intercept="0"/></feComponentTransfer></filter></defs><g id="p.2"><path fill="#000000" fill-opacity="0.0" d="m336.6273 303.77823l337.35434 0l0 48.346436l-337.35434 0z" fill-rule="evenodd"/></g></g></svg>